<mxfile host="app.diagrams.net" modified="2021-01-14T12:02:32.859Z" agent="5.0 (Windows NT 10.0; Win64; x64) AppleWebKit/537.36 (KHTML, like Gecko) Chrome/87.0.4280.141 Safari/537.36" etag="hc_BSkA7Ef6lXlK-onx_" version="14.2.2" type="github">
  <diagram id="LABsaE5NDlapypMMA4mU" name="Page-1">
    <mxGraphModel dx="1422" dy="794" grid="1" gridSize="10" guides="1" tooltips="1" connect="1" arrows="1" fold="1" page="1" pageScale="1" pageWidth="850" pageHeight="1100" math="0" shadow="0">
      <root>
        <mxCell id="0" />
        <mxCell id="1" parent="0" />
        <mxCell id="pNEjwK5VX2j_wRrByYlO-9" style="edgeStyle=orthogonalEdgeStyle;rounded=0;orthogonalLoop=1;jettySize=auto;html=1;exitX=0.5;exitY=1;exitDx=0;exitDy=0;exitPerimeter=0;entryX=0.5;entryY=0;entryDx=0;entryDy=0;" edge="1" parent="1" source="pNEjwK5VX2j_wRrByYlO-1" target="pNEjwK5VX2j_wRrByYlO-2">
          <mxGeometry relative="1" as="geometry" />
        </mxCell>
        <mxCell id="pNEjwK5VX2j_wRrByYlO-1" value="Start Sep 2020" style="strokeWidth=2;html=1;shape=mxgraph.flowchart.terminator;whiteSpace=wrap;" vertex="1" parent="1">
          <mxGeometry x="110" y="40" width="100" height="60" as="geometry" />
        </mxCell>
        <mxCell id="pNEjwK5VX2j_wRrByYlO-10" style="edgeStyle=orthogonalEdgeStyle;rounded=0;orthogonalLoop=1;jettySize=auto;html=1;exitX=0.5;exitY=1;exitDx=0;exitDy=0;entryX=0.5;entryY=0;entryDx=0;entryDy=0;" edge="1" parent="1" source="pNEjwK5VX2j_wRrByYlO-2" target="pNEjwK5VX2j_wRrByYlO-3">
          <mxGeometry relative="1" as="geometry" />
        </mxCell>
        <mxCell id="pNEjwK5VX2j_wRrByYlO-2" value="Brief" style="rounded=1;whiteSpace=wrap;html=1;absoluteArcSize=1;arcSize=14;strokeWidth=2;" vertex="1" parent="1">
          <mxGeometry x="110" y="120" width="100" height="40" as="geometry" />
        </mxCell>
        <mxCell id="pNEjwK5VX2j_wRrByYlO-11" style="edgeStyle=orthogonalEdgeStyle;rounded=0;orthogonalLoop=1;jettySize=auto;html=1;exitX=0.5;exitY=1;exitDx=0;exitDy=0;entryX=0.5;entryY=0;entryDx=0;entryDy=0;entryPerimeter=0;" edge="1" parent="1" source="pNEjwK5VX2j_wRrByYlO-3" target="pNEjwK5VX2j_wRrByYlO-4">
          <mxGeometry relative="1" as="geometry" />
        </mxCell>
        <mxCell id="pNEjwK5VX2j_wRrByYlO-3" value="Proposal" style="rounded=1;whiteSpace=wrap;html=1;absoluteArcSize=1;arcSize=14;strokeWidth=2;" vertex="1" parent="1">
          <mxGeometry x="110" y="180" width="100" height="40" as="geometry" />
        </mxCell>
        <mxCell id="pNEjwK5VX2j_wRrByYlO-12" style="edgeStyle=orthogonalEdgeStyle;rounded=0;orthogonalLoop=1;jettySize=auto;html=1;exitX=0.5;exitY=1;exitDx=0;exitDy=0;exitPerimeter=0;entryX=0.5;entryY=0;entryDx=0;entryDy=0;" edge="1" parent="1" source="pNEjwK5VX2j_wRrByYlO-4" target="pNEjwK5VX2j_wRrByYlO-6">
          <mxGeometry relative="1" as="geometry" />
        </mxCell>
        <mxCell id="pNEjwK5VX2j_wRrByYlO-4" value="Is there a&lt;br&gt;need for this project" style="strokeWidth=2;html=1;shape=mxgraph.flowchart.decision;whiteSpace=wrap;" vertex="1" parent="1">
          <mxGeometry x="110" y="240" width="100" height="100" as="geometry" />
        </mxCell>
        <mxCell id="pNEjwK5VX2j_wRrByYlO-13" style="edgeStyle=orthogonalEdgeStyle;rounded=0;orthogonalLoop=1;jettySize=auto;html=1;exitX=0.5;exitY=1;exitDx=0;exitDy=0;entryX=0.5;entryY=0;entryDx=0;entryDy=0;" edge="1" parent="1" source="pNEjwK5VX2j_wRrByYlO-6" target="pNEjwK5VX2j_wRrByYlO-7">
          <mxGeometry relative="1" as="geometry" />
        </mxCell>
        <mxCell id="pNEjwK5VX2j_wRrByYlO-6" value="Literature review" style="rounded=1;whiteSpace=wrap;html=1;absoluteArcSize=1;arcSize=14;strokeWidth=2;" vertex="1" parent="1">
          <mxGeometry x="110" y="360" width="100" height="40" as="geometry" />
        </mxCell>
        <mxCell id="pNEjwK5VX2j_wRrByYlO-14" style="edgeStyle=orthogonalEdgeStyle;rounded=0;orthogonalLoop=1;jettySize=auto;html=1;exitX=0.5;exitY=1;exitDx=0;exitDy=0;entryX=0.5;entryY=0;entryDx=0;entryDy=0;" edge="1" parent="1" source="pNEjwK5VX2j_wRrByYlO-7" target="pNEjwK5VX2j_wRrByYlO-8">
          <mxGeometry relative="1" as="geometry" />
        </mxCell>
        <mxCell id="pNEjwK5VX2j_wRrByYlO-7" value="Aims and objectives" style="rounded=1;whiteSpace=wrap;html=1;absoluteArcSize=1;arcSize=14;strokeWidth=2;" vertex="1" parent="1">
          <mxGeometry x="110" y="420" width="100" height="40" as="geometry" />
        </mxCell>
        <mxCell id="pNEjwK5VX2j_wRrByYlO-17" style="edgeStyle=orthogonalEdgeStyle;rounded=0;orthogonalLoop=1;jettySize=auto;html=1;exitX=0.5;exitY=1;exitDx=0;exitDy=0;entryX=0.5;entryY=0;entryDx=0;entryDy=0;" edge="1" parent="1" source="pNEjwK5VX2j_wRrByYlO-8" target="pNEjwK5VX2j_wRrByYlO-15">
          <mxGeometry relative="1" as="geometry" />
        </mxCell>
        <mxCell id="pNEjwK5VX2j_wRrByYlO-8" value="Project planning" style="rounded=1;whiteSpace=wrap;html=1;absoluteArcSize=1;arcSize=14;strokeWidth=2;" vertex="1" parent="1">
          <mxGeometry x="110" y="480" width="100" height="40" as="geometry" />
        </mxCell>
        <mxCell id="pNEjwK5VX2j_wRrByYlO-18" style="edgeStyle=orthogonalEdgeStyle;rounded=0;orthogonalLoop=1;jettySize=auto;html=1;exitX=0.5;exitY=1;exitDx=0;exitDy=0;entryX=0.5;entryY=0;entryDx=0;entryDy=0;" edge="1" parent="1" source="pNEjwK5VX2j_wRrByYlO-15" target="pNEjwK5VX2j_wRrByYlO-16">
          <mxGeometry relative="1" as="geometry" />
        </mxCell>
        <mxCell id="pNEjwK5VX2j_wRrByYlO-15" value="Further research" style="rounded=1;whiteSpace=wrap;html=1;absoluteArcSize=1;arcSize=14;strokeWidth=2;" vertex="1" parent="1">
          <mxGeometry x="110" y="540" width="100" height="40" as="geometry" />
        </mxCell>
        <mxCell id="pNEjwK5VX2j_wRrByYlO-16" value="Sketches" style="rounded=1;whiteSpace=wrap;html=1;absoluteArcSize=1;arcSize=14;strokeWidth=2;" vertex="1" parent="1">
          <mxGeometry x="110" y="600" width="100" height="40" as="geometry" />
        </mxCell>
      </root>
    </mxGraphModel>
  </diagram>
</mxfile>
